<?xml version="1.0" encoding="UTF-8" standalone="no"?>
<svg
   viewBox="0 0 248163.91 231619.64"
   version="1.1"
   width="248163.91"
   height="231619.64"
   xmlns="http://www.w3.org/2000/svg"
   xmlns:svg="http://www.w3.org/2000/svg">
  <defs
     id="defs2" />
  <g
     id="root"
     stroke="none"
     stroke-width="1"
     fill="none"
     fill-rule="evenodd"
     transform="translate(-918.04907,-8027.7031)">
    <path
       d="m 253.50076,279.10585 c -2.05478,-0.0332 -4.09304,-0.0497 -6.14122,-0.0497 -9.32434,0 -18.56928,0.35736 -27.74804,0.99267 10.30708,-15.87256 19.59834,-32.51941 27.82744,-49.80816 8.23244,17.28875 17.57002,33.91242 27.88371,49.79822 -7.22653,-0.50295 -14.49939,-0.8239 -21.82189,-0.93308 z M 249.99338,16.055406 c 15.24058,0 30.13372,1.422806 44.61326,4.010329 -0.72464,8.014039 -1.25736,16.08102 -1.3765,24.253885 -1.96214,131.47393 76.097,246.05947 189.73952,299.0375 -10.47583,28.20467 -26.14986,53.93429 -45.80776,76.16317 -51.97544,-35.1301 -114.63848,-56.12476 -182.30782,-57.10418 -1.66434,-0.0232 -3.33202,-0.0331 -4.98974,-0.0331 -67.69911,0 -132.3574,19.97223 -187.128829,57.03799 C 43.130572,397.21861 27.496238,371.54523 17.030345,343.40015 129.09124,291.15336 206.79302,178.89394 206.79302,49.097602 c 0,-9.790894 -0.52282,-19.459359 -1.38974,-29.035176 14.47624,-2.584214 29.35946,-4.00702 44.5901,-4.00702 z m 134.528,36.68855 c 2.05148,82.178644 46.86658,154.073384 113.38112,194.884774 0.14237,3.38826 0.2614,6.77984 0.2614,10.19788 0,12.63982 -0.9761,25.04802 -2.85884,37.16833 -91.4302,-46.34709 -154.14287,-140.13319 -154.14287,-248.124195 0,-5.327252 0.1886,-10.614798 0.49301,-15.872563 15.07182,5.893066 29.4157,13.192392 42.86618,21.745774 z M 139.60016,479.29469 c -14.74094,-7.26292 -28.63812,-15.94204 -41.53603,-25.84214 43.98457,-27.74802 96.08905,-43.89192 151.94249,-43.89192 55.85012,0 107.94468,16.14058 151.92924,43.87538 -12.8979,9.9067 -26.79508,18.58252 -41.5327,25.85206 -33.09844,-17.02404 -70.61752,-26.70244 -110.39324,-26.70244 -39.78564,0 -77.30802,9.68502 -110.41307,26.70906 z M 2.0974956,247.63205 C 68.60542,206.81403 113.42382,134.9226 115.47862,52.740648 c 13.45048,-8.550074 27.79436,-15.8494 42.86618,-21.739158 0.3044,5.254457 0.49302,10.538693 0.49302,15.865945 0,107.994315 -62.715985,201.780415 -154.1461749,248.130815 -1.8827366,-12.12032 -2.8555469,-24.53514 -2.8555469,-37.16833 0,-3.42135 0.1190816,-6.81624 0.2613974,-10.19787 z"
       fill="#ffffff"
       style="fill:#ffffff;fill-opacity:1;stroke-width:3.30886" />
  </g>
</svg>
