<svg viewBox="0 0 24 24" fill="none" xmlns="http://www.w3.org/2000/svg" class="h-12 w-12 text-earthen-green"><path d="M7.999 15.042 5.38 12.424H4.254a.14.14 0 0 1-.14-.14v-.564a.141.141 0 0 1 .14-.141h1.127l2.618-2.618a.282.282 0 0 0 0-.399l-1.07-1.07a.705.705 0 0 0-.997 0l-3.52 3.513a1.409 1.409 0 0 0 0 1.993l3.517 3.516a.705.705 0 0 0 .996 0l1.07-1.07A.283.283 0 0 0 8 15.042ZM8.562 7.999a.282.282 0 0 0 .4 0l2.617-2.618V4.254a.14.14 0 0 1 .14-.14h.564a.14.14 0 0 1 .141.14v1.127l2.618 2.618a.282.282 0 0 0 .399 0l1.07-1.07a.705.705 0 0 0 0-.997l-3.513-3.52a1.409 1.409 0 0 0-1.993 0L7.49 5.93a.705.705 0 0 0 0 .996L8.562 8ZM21.59 11.005l-3.516-3.517a.705.705 0 0 0-.997 0l-1.07 1.071a.28.28 0 0 0 0 .399l2.615 2.62h1.127a.14.14 0 0 1 .14.141v.564a.141.141 0 0 1-.14.14h-1.127l-2.618 2.618a.28.28 0 0 0-.061.308.281.281 0 0 0 .061.091l1.07 1.07a.705.705 0 0 0 .997 0l3.516-3.516a1.408 1.408 0 0 0 .003-1.989ZM15.44 16.005a.282.282 0 0 0-.398 0l-2.618 2.617v1.127a.14.14 0 0 1-.14.141h-.564a.14.14 0 0 1-.141-.14v-1.128l-2.618-2.617a.282.282 0 0 0-.399 0l-1.07 1.07a.705.705 0 0 0 0 .996l3.516 3.517a1.408 1.408 0 0 0 1.993 0l3.516-3.517a.705.705 0 0 0 0-.996l-1.076-1.07Z" fill="currentColor"></path><path d="M9.184 10.114a1.972 1.972 0 1 0 0 3.78c.259-.077.499-.208.704-.383l1.55-1.51-1.55-1.509a1.956 1.956 0 0 0-.704-.378ZM12.001 11.438l1.51-1.55a1.971 1.971 0 1 0-3.019 0l1.51 1.55ZM12.002 17.354a1.972 1.972 0 0 0 1.509-3.24l-1.51-1.55-1.509 1.55a1.973 1.973 0 0 0 1.512 3.24h-.002ZM14.819 13.89a1.972 1.972 0 1 0-.705-3.398l-1.55 1.51 1.55 1.51c.206.172.446.301.705.377Z" fill="currentColor"></path></svg>