<svg viewBox="0 0 24 24" fill="none" xmlns="http://www.w3.org/2000/svg" class="h-12 w-12 text-blue"><path d="m16.073 3.324-3.723-2.23a.674.674 0 0 0-.69 0L7.91 3.325a.685.685 0 0 0-.333.593v4.48a.693.693 0 0 0 .333.592l3.736 2.227a.674.674 0 0 0 .689 0l3.723-2.227a.68.68 0 0 0 .335-.592v-4.48a.693.693 0 0 0-.32-.593ZM16.073 15.002l-3.723-2.226a.674.674 0 0 0-.69 0L7.91 15.002a.685.685 0 0 0-.333.593v4.491a.699.699 0 0 0 .333.593l3.736 2.226a.674.674 0 0 0 .689 0l3.723-2.227a.686.686 0 0 0 .335-.592v-4.483a.694.694 0 0 0-.32-.6ZM20.476 7.282l-3.055 1.823a.685.685 0 0 0-.335.592v4.605a.697.697 0 0 0 .335.592l3.055 1.82a.672.672 0 0 0 .933-.246.693.693 0 0 0 .091-.346V7.875a.696.696 0 0 0-.343-.596.674.674 0 0 0-.68.003ZM6.58 9.105 3.523 7.282a.674.674 0 0 0-.931.248.696.696 0 0 0-.093.345v8.247a.693.693 0 0 0 .342.598.671.671 0 0 0 .682-.006l3.055-1.82a.683.683 0 0 0 .333-.592V9.697a.693.693 0 0 0-.333-.592Z" fill="currentColor"></path></svg>