<svg viewBox="0 0 24 24" fill="none" xmlns="http://www.w3.org/2000/svg" class="h-12 w-12 text-marcolian-red"><path d="m8.475 12 2.935-.59L12 7.59l.59 3.822 2.936.589-2.936.589-.59 3.808-.59-3.808-2.935-.59ZM12 5.534a6.481 6.481 0 0 0-5.982 3.991 6.457 6.457 0 0 0 1.404 7.046A6.478 6.478 0 0 0 18.475 12a6.46 6.46 0 0 0-1.897-4.572A6.48 6.48 0 0 0 12 5.534Z" fill="currentColor"></path><path d="M2 11.41a10.007 10.007 0 0 1 2.915-6.49A10.034 10.034 0 0 1 11.41 2v2.356a7.673 7.673 0 0 0-4.832 2.225 7.652 7.652 0 0 0-2.219 4.83H2ZM4.36 12.588c.141 1.82.93 3.53 2.222 4.822a7.673 7.673 0 0 0 4.828 2.22v2.355a10.034 10.034 0 0 1-6.495-2.92A10.007 10.007 0 0 1 2 12.575l2.36.014ZM12.59 19.63a7.673 7.673 0 0 0 4.836-2.215 7.652 7.652 0 0 0 2.228-4.825H22a10.007 10.007 0 0 1-2.915 6.49A10.034 10.034 0 0 1 12.59 22v-2.37ZM19.654 11.41a7.666 7.666 0 0 0-2.227-4.83 7.687 7.687 0 0 0-4.837-2.224V2a10.034 10.034 0 0 1 6.495 2.92A10.007 10.007 0 0 1 22 11.41h-2.346Z" fill="currentColor"></path></svg>