<?xml version="1.0" encoding="UTF-8" standalone="no"?>
<svg
   width="13.501283"
   height="31.427975"
   viewBox="0 0 13.501283 31.427975"
   fill="none"
   version="1.1"
   id="svg10"
   xmlns="http://www.w3.org/2000/svg"
   xmlns:svg="http://www.w3.org/2000/svg">
  <g
     clip-path="url(#clip0_2656_13345)"
     id="g10"
     transform="translate(0.01837155,-0.29632568)">
    <path
       d="m 38.3174,19.053 c 0.694,0 1.3596,-0.2757 1.8504,-0.7665 0.4907,-0.4908 0.7664,-1.1564 0.7664,-1.8504 v -3.9252 c 0,-0.6941 -0.2757,-1.3597 -0.7664,-1.8504 C 39.677,10.1697 39.0114,9.89404 38.3174,9.89404 H 25.6694 V 22.1059 h 3.9252 V 19.053 Z m -8.7228,-6.106 h 6.6293 c 0.2314,0 0.4532,0.0919 0.6168,0.2555 0.1636,0.1636 0.2555,0.3854 0.2555,0.6168 v 1.3084 c 0,0.2313 -0.0919,0.4532 -0.2555,0.6168 C 36.6771,15.9081 36.4553,16 36.2239,16 h -5.9751 l -0.6542,1.5265 z"
       fill="#ffffff"
       id="path1" />
    <path
       d="M 111.763,19.053 H 100.86 V 9.89404 h -3.9256 v 9.59506 c 0,0.3436 0.0677,0.6839 0.1992,1.0014 0.1315,0.3175 0.3243,0.606 0.5673,0.849 0.243,0.243 0.5315,0.4357 0.8489,0.5672 0.3175,0.1315 0.6578,0.1992 1.0015,0.1992 h 10.9467 z"
       fill="#ffffff"
       id="path2" />
    <path
       d="M 127.595,19.053 H 116.691 V 9.89404 h -3.925 v 9.59506 c 0,0.3436 0.068,0.6839 0.199,1.0014 0.132,0.3175 0.325,0.606 0.568,0.849 0.243,0.243 0.531,0.4357 0.849,0.5672 0.317,0.1315 0.657,0.1992 1.001,0.1992 h 10.947 z"
       fill="#ffffff"
       id="path3" />
    <path
       d="M 160,19.053 H 149.097 V 9.89404 h -3.926 v 9.59506 c 0,0.3436 0.068,0.6839 0.199,1.0014 0.132,0.3175 0.325,0.606 0.568,0.849 0.243,0.243 0.531,0.4357 0.849,0.5672 0.317,0.1315 0.657,0.1992 1.001,0.1992 h 10.947 z"
       fill="#ffffff"
       id="path4" />
    <path
       d="m 51.3684,9.89404 h -3.9462 c -0.3062,10e-6 -0.607,0.08062 -0.8722,0.23376 -0.2652,0.1531 -0.4854,0.3733 -0.6385,0.6385 l -6.5474,11.3396 h 4.3614 l 0.8828,-1.5282 h 9.5758 l 0.881,1.5282 h 4.3614 L 52.8792,10.7663 C 52.7261,10.5011 52.5059,10.2809 52.2407,10.1278 51.9755,9.97466 51.6746,9.89405 51.3684,9.89404 Z m 1.0467,7.63066 h -6.0448 l 2.5174,-4.3614 c 0.0378,-0.0665 0.0926,-0.1218 0.1588,-0.1601 0.0662,-0.0383 0.1415,-0.0583 0.218,-0.0579 h 0.2599 c 0.0768,-4e-4 0.1522,0.0196 0.2187,0.0579 0.0665,0.0384 0.1217,0.0936 0.1599,0.1601 z"
       fill="#ffffff"
       id="path5" />
    <path
       d="m 88.6234,9.89404 h -3.955 c -0.3062,10e-6 -0.607,0.08062 -0.8722,0.23376 -0.2652,0.1531 -0.4854,0.3733 -0.6385,0.6385 l -6.5473,11.3396 h 4.3613 l 0.8828,-1.5282 h 9.5759 l 0.8722,1.5282 H 96.664 L 90.1254,10.7663 C 89.973,10.5024 89.7542,10.283 89.4907,10.13 89.2271,9.97691 88.9281,9.89558 88.6234,9.89404 Z m 1.0467,7.63066 h -6.0536 l 2.5174,-4.3614 c 0.0378,-0.0665 0.0926,-0.1218 0.1588,-0.1601 0.0662,-0.0383 0.1415,-0.0583 0.218,-0.0579 h 0.2599 c 0.0768,-4e-4 0.1522,0.0196 0.2187,0.0579 0.0665,0.0384 0.1217,0.0936 0.1599,0.1601 z"
       fill="#ffffff"
       id="path6" />
    <path
       d="m 75.6508,16.4361 v -3.9252 c 0,-0.6941 -0.2757,-1.3597 -0.7664,-1.8504 C 74.3936,10.1697 73.728,9.89404 73.034,9.89404 H 60.386 V 22.1059 h 3.9252 V 19.053 h 3.7962 l 3.0512,3.0529 h 4.4922 L 72.5996,19.053 h 0.4344 c 0.694,0 1.3596,-0.2757 1.8504,-0.7665 0.4907,-0.4908 0.7664,-1.1564 0.7664,-1.8504 z m -3.838,-1.3084 c 0,0.2313 -0.0919,0.4532 -0.2555,0.6168 C 71.3938,15.9081 71.1719,16 70.9405,16 h -5.9751 l -0.6542,1.5265 V 12.947 h 6.6293 c 0.2314,0 0.4533,0.0919 0.6168,0.2555 0.1636,0.1636 0.2555,0.3854 0.2555,0.6168 z"
       fill="#ffffff"
       id="path7" />
    <path
       d="m 132.523,12.947 v 1.5265 h 11.34 v 3.053 h -11.34 v 1.5265 h 11.34 v 3.0529 h -12.648 c -0.344,0 -0.684,-0.0677 -1.002,-0.1992 -0.317,-0.1315 -0.606,-0.3242 -0.849,-0.5672 -0.243,-0.243 -0.435,-0.5315 -0.567,-0.849 -0.131,-0.3175 -0.199,-0.6578 -0.199,-1.0014 v -6.9782 c 0,-0.6941 0.276,-1.3597 0.766,-1.8504 0.491,-0.4908 1.157,-0.76646 1.851,-0.76646 h 12.648 V 12.947 Z"
       fill="#ffffff"
       id="path8" />
    <path
       d="m 2.44239,28.5433 c -0.12591,0.2729 -0.19567,0.5683 -0.20513,0.8687 -0.00947,0.3003 0.04155,0.5995 0.15002,0.8798 0.10848,0.2802 0.27219,0.5358 0.48141,0.7515 0.20922,0.2157 0.45967,0.3872 0.73647,0.5042 0.2768,0.117 0.5743,0.1771 0.87481,0.1768 0.30051,-2e-4 0.59789,-0.0609 0.87448,-0.1784 C 5.63103,31.4284 5.88117,31.2564 6.08999,31.0403 6.29881,30.8242 6.46205,30.5684 6.57,30.2879 l 6.6886,-15.6155 c 0.1326,-0.2738 0.2081,-0.5718 0.222,-0.8757 0.0138,-0.304 -0.0343,-0.6076 -0.1415,-0.8923 -0.1072,-0.2848 -0.2712,-0.5448 -0.482,-0.7642 -0.2108,-0.2194 -0.464,-0.3936 -0.7443,-0.512 -0.2803,-0.1185 -0.5817,-0.1787 -0.8859,-0.177 -0.3043,0.0017 -0.605,0.0653 -0.8839,0.1868 -0.279,0.1216 -0.53023,0.2987 -0.73858,0.5204 -0.20835,0.2217 -0.36942,0.4835 -0.47341,0.7694 z"
       fill="#def141"
       id="path9" />
    <path
       d="m 0.197151,17.3276 c -0.1293437,0.2733 -0.20207829,0.5699 -0.2138286,0.872 -0.0117504,0.3021 0.0377263,0.6034 0.1454536,0.8859 0.107728,0.2825 0.27148,0.5402 0.481408,0.7578 0.209927,0.2176 0.461686,0.3904 0.740146,0.5081 0.27846,0.1178 0.57785,0.178 0.88018,0.177 0.30232,-9e-4 0.60133,-0.063 0.87903,-0.1825 0.2777,-0.1196 0.52836,-0.294 0.7369,-0.5129 0.20854,-0.2189 0.37065,-0.4777 0.47658,-0.7608 L 11.0186,3.45666 C 11.1485,3.16939 11.2157,2.85776 11.2158,2.54251 11.2168,2.02118 11.0361,1.51579 10.7047,1.1133 10.3734,0.710805 9.91214,0.43638 9.40032,0.337239 8.8885,0.238097 8.35813,0.320439 7.90047,0.570096 7.4428,0.819754 7.08646,1.22112 6.89275,1.70512 Z"
       fill="#def141"
       id="path10" />
  </g>
  <defs
     id="defs10">
    <clipPath
       id="clip0_2656_13345">
      <rect
         width="160"
         height="31.402"
         fill="#ffffff"
         transform="translate(0,0.299011)"
         id="rect10"
         x="0"
         y="0" />
    </clipPath>
  </defs>
</svg>
