<svg width="160" height="32" viewBox="0 0 160 32" fill="none" xmlns="http://www.w3.org/2000/svg"><g clip-path="url(#clip0_2656_13345)"><path d="M38.3174 19.053C39.0114 19.053 39.677 18.7773 40.1678 18.2865C40.6585 17.7957 40.9342 17.1301 40.9342 16.4361V12.5109C40.9342 11.8168 40.6585 11.1512 40.1678 10.6605C39.677 10.1697 39.0114 9.89404 38.3174 9.89404H25.6694V22.1059H29.5946V19.053H38.3174ZM29.5946 12.947H36.2239C36.4553 12.947 36.6771 13.0389 36.8407 13.2025C37.0043 13.3661 37.0962 13.5879 37.0962 13.8193V15.1277C37.0962 15.359 37.0043 15.5809 36.8407 15.7445C36.6771 15.9081 36.4553 16 36.2239 16H30.2488L29.5946 17.5265V12.947Z" fill="white"></path><path d="M111.763 19.053H100.86V9.89404H96.9344V19.4891C96.9344 19.8327 97.0021 20.173 97.1336 20.4905C97.2651 20.808 97.4579 21.0965 97.7009 21.3395C97.9439 21.5825 98.2324 21.7752 98.5498 21.9067C98.8673 22.0382 99.2076 22.1059 99.5513 22.1059H110.498L111.763 19.053Z" fill="white"></path><path d="M127.595 19.053H116.691V9.89404H112.766V19.4891C112.766 19.8327 112.834 20.173 112.965 20.4905C113.097 20.808 113.29 21.0965 113.533 21.3395C113.776 21.5825 114.064 21.7752 114.382 21.9067C114.699 22.0382 115.039 22.1059 115.383 22.1059H126.33L127.595 19.053Z" fill="white"></path><path d="M160 19.053H149.097V9.89404H145.171V19.4891C145.171 19.8327 145.239 20.173 145.37 20.4905C145.502 20.808 145.695 21.0965 145.938 21.3395C146.181 21.5825 146.469 21.7752 146.787 21.9067C147.104 22.0382 147.444 22.1059 147.788 22.1059H158.735L160 19.053Z" fill="white"></path><path d="M51.3684 9.89404H47.4222C47.116 9.89405 46.8152 9.97466 46.55 10.1278C46.2848 10.2809 46.0646 10.5011 45.9115 10.7663L39.3641 22.1059H43.7255L44.6083 20.5777H54.1841L55.0651 22.1059H59.4265L52.8792 10.7663C52.7261 10.5011 52.5059 10.2809 52.2407 10.1278C51.9755 9.97466 51.6746 9.89405 51.3684 9.89404V9.89404ZM52.4151 17.5247H46.3703L48.8877 13.1633C48.9255 13.0968 48.9803 13.0415 49.0465 13.0032C49.1127 12.9649 49.188 12.9449 49.2645 12.9453H49.5244C49.6012 12.9449 49.6766 12.9649 49.7431 13.0032C49.8096 13.0416 49.8648 13.0968 49.903 13.1633L52.4151 17.5247Z" fill="white"></path><path d="M88.6234 9.89404H84.6684C84.3622 9.89405 84.0614 9.97466 83.7962 10.1278C83.531 10.2809 83.3108 10.5011 83.1577 10.7663L76.6104 22.1059H80.9717L81.8545 20.5777H91.4304L92.3026 22.1059H96.664L90.1254 10.7663C89.973 10.5024 89.7542 10.283 89.4907 10.13C89.2271 9.97691 88.9281 9.89558 88.6234 9.89404V9.89404ZM89.6701 17.5247H83.6165L86.1339 13.1633C86.1717 13.0968 86.2265 13.0415 86.2927 13.0032C86.3589 12.9649 86.4342 12.9449 86.5107 12.9453H86.7706C86.8474 12.9449 86.9228 12.9649 86.9893 13.0032C87.0558 13.0416 87.111 13.0968 87.1492 13.1633L89.6701 17.5247Z" fill="white"></path><path d="M75.6508 16.4361V12.5109C75.6508 11.8168 75.3751 11.1512 74.8844 10.6605C74.3936 10.1697 73.728 9.89404 73.034 9.89404H60.386V22.1059H64.3112V19.053H68.1074L71.1586 22.1059H75.6508L72.5996 19.053H73.034C73.728 19.053 74.3936 18.7773 74.8844 18.2865C75.3751 17.7957 75.6508 17.1301 75.6508 16.4361ZM71.8128 15.1277C71.8128 15.359 71.7209 15.5809 71.5573 15.7445C71.3938 15.9081 71.1719 16 70.9405 16H64.9654L64.3112 17.5265V12.947H70.9405C71.1719 12.947 71.3938 13.0389 71.5573 13.2025C71.7209 13.3661 71.8128 13.5879 71.8128 13.8193V15.1277Z" fill="white"></path><path d="M132.523 12.947V14.4735H143.863V17.5265H132.523V19.053H143.863V22.1059H131.215C130.871 22.1059 130.531 22.0382 130.213 21.9067C129.896 21.7752 129.607 21.5825 129.364 21.3395C129.121 21.0965 128.929 20.808 128.797 20.4905C128.666 20.173 128.598 19.8327 128.598 19.4891V12.5109C128.598 11.8168 128.874 11.1512 129.364 10.6605C129.855 10.1697 130.521 9.89404 131.215 9.89404H143.863V12.947H132.523Z" fill="white"></path><path d="M2.44239 28.5433C2.31648 28.8162 2.24672 29.1116 2.23726 29.412C2.22779 29.7123 2.27881 30.0115 2.38728 30.2918C2.49576 30.572 2.65947 30.8276 2.86869 31.0433C3.07791 31.259 3.32836 31.4305 3.60516 31.5475C3.88196 31.6645 4.17946 31.7246 4.47997 31.7243C4.78048 31.7241 5.07786 31.6634 5.35445 31.5459C5.63103 31.4284 5.88117 31.2564 6.08999 31.0403C6.29881 30.8242 6.46205 30.5684 6.57 30.2879L13.2586 14.6724C13.3912 14.3986 13.4667 14.1006 13.4806 13.7967C13.4944 13.4927 13.4463 13.1891 13.3391 12.9044C13.2319 12.6196 13.0679 12.3596 12.8571 12.1402C12.6463 11.9208 12.3931 11.7466 12.1128 11.6282C11.8325 11.5097 11.5311 11.4495 11.2269 11.4512C10.9226 11.4529 10.6219 11.5165 10.343 11.638C10.064 11.7596 9.81277 11.9367 9.60442 12.1584C9.39607 12.3801 9.235 12.6419 9.13101 12.9278L2.44239 28.5433Z" fill="#DEF141"></path><path d="M0.197151 17.3276C0.0678073 17.6009 -0.00492729 17.8975 -0.0166776 18.1996C-0.028428 18.5017 0.0210487 18.803 0.128776 19.0855C0.236504 19.368 0.400256 19.6257 0.610184 19.8433C0.820111 20.0609 1.07187 20.2337 1.35033 20.3514C1.62879 20.4692 1.92818 20.5294 2.23051 20.5284C2.53283 20.5275 2.83184 20.4654 3.10954 20.3459C3.38724 20.2263 3.6379 20.0519 3.84644 19.833C4.05498 19.6141 4.21709 19.3553 4.32302 19.0722L11.0186 3.45666C11.1485 3.16939 11.2157 2.85776 11.2158 2.54251C11.2168 2.02118 11.0361 1.51579 10.7047 1.1133C10.3734 0.710805 9.91214 0.43638 9.40032 0.337239C8.8885 0.238097 8.35813 0.320439 7.90047 0.570096C7.4428 0.819754 7.08646 1.22112 6.89275 1.70512L0.197151 17.3276Z" fill="#DEF141"></path></g><defs><clipPath id="clip0_2656_13345"><rect width="160" height="31.402" fill="white" transform="translate(0 0.299011)"></rect></clipPath></defs></svg>