<svg viewBox="0 0 24 24" fill="none" xmlns="http://www.w3.org/2000/svg" class="h-12 w-12 text-shroud-purple"><path d="M11.792 7.122 3.476 20.625l1.582-.424c.257-.536.53-1.064.802-1.596.569-1.085 1.16-2.16 1.77-3.225a83.4 83.4 0 0 1 1.892-3.157c.325-.521 1.367-2.061 1.556-2.305.097-.125.192-.25.301-.375.056-.064.112-.128.18-.194.039-.037.08-.072.123-.105.015 0 .021-.016.04-.027l.061-.035a.303.303 0 0 1 .083-.035.412.412 0 0 1 .272 0c.03.008.057.02.083.035l.06.035.04.027c.052.04.087.072.124.105.068.066.124.13.18.194.107.126.206.25.3.375.19.252 1.238 1.784 1.557 2.306a92.472 92.472 0 0 1 1.891 3.156c.604 1.066 1.2 2.14 1.771 3.225.272.532.545 1.06.802 1.596l1.582.424-8.316-13.503a.247.247 0 0 0-.42 0Z" fill="currentColor"></path><path d="M12.196 10.186a.246.246 0 0 0-.388 0l-.15.192c-.173.22-6.035 9.293-6.308 9.744l1.413-.377.124-.25c.428-.845.885-1.676 1.37-2.492.481-.825.999-1.61 1.543-2.394.272-.392.56-.771.87-1.146.157-.186.318-.37.497-.549.095-.094.196-.183.301-.266 0 0 .159-.107.196-.126a.712.712 0 0 1 .338-.097.726.726 0 0 1 .338.097c.037.019.206.126.206.126.106.083.206.172.301.266.18.18.34.363.497.549.31.375.598.754.87 1.146a38.723 38.723 0 0 1 1.543 2.394c.48.816.942 1.65 1.37 2.492l.125.25 1.41.377c-.28-.451-6.136-9.523-6.316-9.752l-.15-.184Z" fill="currentColor"></path><path d="M13.64 15.025c-.281-.37-1.157-1.428-1.314-1.581a6.437 6.437 0 0 0-.229-.206l-.054-.037-.039-.023-.039.023-.054.037c-.08.064-.156.133-.228.206-.157.153-1.031 1.21-1.314 1.581-.565.743-1.09 1.52-1.62 2.291-.53.771-1.025 1.53-1.512 2.301l1.237-.332c.134-.233.275-.464.413-.69a12.97 12.97 0 0 1 1.237-1.633c.234-.263.489-.507.76-.73.072-.06.146-.114.223-.165.04-.025.077-.054.118-.079l.128-.072c.196-.113.417-.178.643-.19.226.013.446.078.643.19l.128.072c.041.025.079.054.118.079.077.05.151.106.222.165a6.7 6.7 0 0 1 .76.73 12.984 12.984 0 0 1 1.649 2.323l1.237.332a84.916 84.916 0 0 0-1.508-2.3c-.51-.762-1.04-1.55-1.606-2.292Z" fill="currentColor"></path><path d="M13.363 17.448a6.458 6.458 0 0 0-.7-.635c-.061-.043-.119-.093-.18-.13l-.091-.06-.083-.045a.783.783 0 0 0-.3-.1.783.783 0 0 0-.302.1l-.09.05c-.03.018-.058.04-.09.06-.03.018-.12.086-.18.129a6.47 6.47 0 0 0-.7.635c-.45.47-.874.967-1.268 1.487l-.107.14 2.101-.561a2.428 2.428 0 0 1 1.27 0l2.101.56-.109-.14c-.395-.52-.82-1.018-1.272-1.49Z" fill="currentColor"></path><path d="M12.214 4.122a.245.245 0 0 0-.424 0C10.402 6.444 2.654 19.413 2 20.46a.619.619 0 0 0 .73.364l.447-.121s8.433-14.685 8.444-14.7a.456.456 0 0 1 .588-.159c.075.038.14.096.185.168l8.433 14.69.445.12A.618.618 0 0 0 22 20.46c-.65-1.046-8.4-14.015-9.786-16.337Z" fill="currentColor"></path></svg>