<?xml version="1.0" encoding="UTF-8" standalone="no"?>
<svg
   viewBox="0 0 250000 250000"
   version="1.1"
   id="svg_null"
   width="250000"
   height="250000"
   xmlns="http://www.w3.org/2000/svg"
   xmlns:svg="http://www.w3.org/2000/svg">
  <defs
     id="defs2" />
  <g
     id="root"
     stroke="none"
     stroke-width="1"
     fill="none"
     fill-rule="evenodd">
    <path
       d="m 251.88259,275.96242 c -1.86298,-0.0322 -3.71099,-0.0483 -5.56799,-0.0483 -8.45399,0 -16.836,0.34715 -25.158,0.9643 9.345,-15.41892 17.769,-31.59001 25.22999,-48.38465 7.46402,16.79464 15.93002,32.94321 25.28101,48.375 -6.55199,-0.48858 -13.146,-0.80036 -19.78501,-0.90642 z M 248.7026,20.429906 c 13.818,0 27.321,1.382142 40.449,3.895715 -0.657,7.784999 -1.13999,15.621427 -1.24801,23.560714 -1.77899,127.716435 68.99402,239.027145 172.02902,290.491065 -9.49801,27.39859 -23.70901,52.39286 -41.53202,73.98645 -47.12399,-34.12609 -103.93799,-54.52073 -165.291,-55.47216 -1.50898,-0.0225 -3.021,-0.0322 -4.52399,-0.0322 -61.38,0 -120.00301,19.40143 -169.662011,55.40785 C 61.148597,390.69954 46.973589,365.7599 37.484595,338.4192 139.0856,287.66562 209.53461,178.61455 209.53461,52.527763 c 0,-9.511072 -0.47402,-18.903215 -1.26002,-28.205357 13.12501,-2.510358 26.61901,-3.8925 40.42801,-3.8925 z m 121.971,35.639999 c 1.85999,79.829995 42.492,149.669995 102.798,189.315005 0.12908,3.29143 0.237,6.58608 0.237,9.90643 0,12.27857 -0.88499,24.33215 -2.59199,36.10607 -82.89601,-45.0225 -139.755,-136.12822 -139.755,-241.032861 0,-5.175 0.17099,-10.311429 0.44699,-15.418928 13.665,5.724643 26.67,12.815356 38.865,21.124284 z M 148.61361,470.42991 c -13.36501,-7.05535 -25.96501,-15.48642 -37.65902,-25.10358 39.87901,-26.95499 87.11999,-42.6375 137.76001,-42.6375 50.63701,0 97.869,15.67929 137.74799,42.62143 -11.69399,9.62357 -24.29399,18.05144 -37.65599,25.11322 -30.00899,-16.5375 -64.026,-25.93929 -100.08901,-25.93929 -36.072,0 -70.092,9.40822 -100.10699,25.94572 z M 23.945594,245.38814 C 84.245594,205.73669 124.8806,135.8999 126.7436,56.066691 c 12.19499,-8.305714 25.2,-15.396427 38.865,-21.117857 0.27599,5.104286 0.447,10.237499 0.447,15.4125 0,104.907856 -56.86201,196.013576 -139.757997,241.039286 -1.707,-11.77392 -2.589007,-23.83393 -2.589007,-36.10607 0,-3.32356 0.107966,-6.62143 0.236998,-9.90641 z"
       id="shape.primary"
       fill="#ececda"
       style="fill:#000000;fill-opacity:1;stroke:none;stroke-width:3.1053;stroke-opacity:1" />
  </g>
</svg>
